#!OML:ASF H:\Punching\Project 1\Capture day 1\Session 1\female.ASF
:FULLY-SPECIFIED
:DEGREES
2784
root -1.4181 15.7053 -5.72439 -346.543 2.16695 -360.826
lowerback -7.45886 0.230275 2.87633
upperback -6.71801 0.175115 0.15086
thorax -2.7691 -0.0177317 -1.44737
lowerneck -10.6373 7.62325 13.8274
upperneck 40.6884 11.4091 -7.84245
head 18.4876 5.88226 -3.96989
rclavicle -1.55301e-016 -1.2921e-015
rhumerus -37.0889 -9.48878 -74.6092
rradius 25.4352
rwrist 11.5107
rhand -12.469 -7.4362
rfingers 7.12502
rthumb 13.6051 -36.9716
lclavicle -1.55301e-016 -1.2921e-015
lhumerus -45.287 6.5341 75.3582
lradius 34.1578
lwrist -19.8901
lhand -4.1444 12.1399
lfingers 7.12502
lthumb 21.6153 40.9535
rfemur -17.8696 3.39637 22.6971
rtibia 26.9068
rfoot -24.5383 -19.8165
rtoes -4.17056
lfemur -21.1585 -8.23489 -24.9156
ltibia 25.8877
lfoot -19.1879 14.41
ltoes 9.48087
2785
root -1.39404 15.698 -5.70183 -346.596 2.59272 -360.844
lowerback -7.49695 0.233011 2.87702
upperback -6.70907 0.178306 0.149086
thorax -2.73854 -0.0152157 -1.4494
lowerneck -10.5587 7.62188 13.8583
upperneck 40.7353 11.4188 -7.82557
head 18.4984 5.89976 -3.9683
rclavicle -2.88859e-015 -1.10325e-014
rhumerus -37.1802 -9.57532 -74.4325
rradius 25.3912
rwrist 11.5203
rhand -12.593 -7.31565
rfingers 7.12502
rthumb 13.4855 -36.859
lclavicle -2.88859e-015 -1.10325e-014
lhumerus -45.2505 6.31851 75.702
lradius 34.4588
lwrist -19.6649
lhand -4.09972 12.0865
lfingers 7.12502
lthumb 21.6582 40.8951
rfemur -17.7635 3.07518 22.6974
rtibia 27.1021
rfoot -24.7014 -19.9386
rtoes -4.30918
lfemur -21.0619 -8.37162 -24.9609
ltibia 25.9672
lfoot -19.298 13.9585
ltoes 9.641
2786
root -1.3693 15.6907 -5.6796 -346.644 3.02763 -360.847
lowerback -7.54376 0.24628 2.86406
upperback -6.70093 0.195802 0.135515
thorax -2.70328 -0.00518309 -1.45522
lowerneck -10.4778 7.60684 13.9091
upperneck 40.7807 11.4046 -7.81583
head 18.5061 5.91025 -3.97864
rclavicle 5.7337e-015 -6.65929e-015
rhumerus -37.287 -9.69002 -74.2394
rradius 25.3394
rwrist 11.5544
rhand -12.6804 -7.255
rfingers 7.12502
rthumb 13.4013 -36.804
lclavicle 5.7337e-015 -6.65929e-015
lhumerus -45.1992 6.05734 76.0647
lradius 34.7623
lwrist -19.4455
lhand -4.05795 12.0049
lfingers 7.12502
lthumb 21.6983 40.8089
rfemur -17.688 2.69291 22.6815
rtibia 27.3507
rfoot -24.8967 -20.0164
rtoes -4.51809
lfemur -20.9633 -8.47353 -25.0258
ltibia 26.0295
lfoot -19.3935 13.4453
ltoes 9.82844
2787
root -1.34399 15.6831 -5.65729 -346.698 3.46822 -360.836
lowerback -7.5806 0.264506 2.83604
upperback -6.69472 0.22099 0.11576
thorax -2.67513 0.00904037 -1.4586
lowerneck -10.397 7.58336 13.9651
upperneck 40.8295 11.3762 -7.80561
head 18.5138 5.91614 -3.99272
rclavicle 6.83943e-015 -1.44119e-014
rhumerus -37.4108 -9.82092 -74.0302
rradius 25.2876
rwrist 11.6135
rhand -12.7305 -7.23993
rfingers 7.12502
rthumb 13.353 -36.7921
lclavicle 6.83943e-015 -1.44119e-014
lhumerus -45.1458 5.77794 76.4358
lradius 35.0672
lwrist -19.2436
lhand -4.02744 11.9056
lfingers 7.12502
lthumb 21.7276 40.7062
rfemur -17.6318 2.25267 22.6512
rtibia 27.6611
rfoot -25.1325 -20.0457
rtoes -4.77758
lfemur -20.8453 -8.54775 -25.1103
ltibia 26.0729
lfoot -19.4848 12.8926
ltoes 10.0493
2788
root -1.31811 15.6751 -5.63496 -346.761 3.91459 -360.808
lowerback -7.599 0.283678 2.79006
upperback -6.68932 0.248943 0.0902766
thorax -2.65782 0.0250508 -1.45771
lowerneck -10.322 7.55699 14.0231
upperneck 40.8848 11.3422 -7.79354
head 18.526 5.92044 -4.00746
rclavicle 1.03554e-014 8.64713e-015
rhumerus -37.5429 -9.96642 -73.8052
rradius 25.2347
rwrist 11.696
rhand -12.7257 -7.28978
rfingers 7.12502
rthumb 13.3576 -36.8416
lclavicle 1.03554e-014 8.64713e-015
lhumerus -45.0938 5.48919 76.8114
lradius 35.3766
lwrist -19.054
lhand -4.00428 11.7959
lfingers 7.12502
lthumb 21.7499 40.5939
rfemur -17.5952 1.75021 22.6011
rtibia 28.0427
rfoot -25.4056 -20.0156
rtoes -5.05802
lfemur -20.7032 -8.59322 -25.2203
ltibia 26.094
lfoot -19.569 12.306
ltoes 10.2795
2789
root -1.29158 15.6668 -5.61209 -346.841 4.36122 -360.766
lowerback -7.59891 0.307411 2.7337
upperback -6.67942 0.283935 0.0573588
thorax -2.64568 0.044787 -1.45835
lowerneck -10.2529 7.52682 14.0793
upperneck 40.9446 11.2993 -7.77334
head 18.54 5.9219 -4.0197
rclavicle -6.0443e-015 5.56597e-015
rhumerus -37.6766 -10.1514 -73.5573
rradius 25.1636
rwrist 11.826
rhand -12.6828 -7.36478
rfingers 7.12502
rthumb 13.399 -36.9139
lclavicle -6.0443e-015 5.56597e-015
lhumerus -45.0389 5.18506 77.1904
lradius 35.6865
lwrist -18.873
lhand -3.99178 11.6876
lfingers 7.12502
lthumb 21.7619 40.4842
rfemur -17.5726 1.19396 22.5334
rtibia 28.503
rfoot -25.7003 -19.9225
rtoes -5.34513
lfemur -20.5222 -8.62115 -25.352
ltibia 26.0898
lfoot -19.6434 11.7117
ltoes 10.4928
2790
root -1.26442 15.6584 -5.58881 -346.938 4.81034 -360.709
lowerback -7.57579 0.330685 2.66431
upperback -6.66814 0.319627 0.021238
thorax -2.64476 0.0651485 -1.45503
lowerneck -10.1862 7.49158 14.1157
upperneck 41.0107 11.2473 -7.7366
head 18.553 5.91879 -4.02242
rclavicle 9.0447e-015 -3.27995e-015
rhumerus -37.8085 -10.3709 -73.284
rradius 25.0704
rwrist 12.0086
rhand -12.6106 -7.44876
rfingers 7.12502
rthumb 13.4685 -36.9933
lclavicle 9.0447e-015 -3.27995e-015
lhumerus -44.986 4.87936 77.5686
lradius 35.9929
lwrist -18.7004
lhand -3.98805 11.5877
lfingers 7.12502
lthumb 21.7654 40.3839
rfemur -17.5742 0.593688 22.4454
rtibia 29.0502
rfoot -25.9919 -19.7805
rtoes -5.64557
lfemur -20.3033 -8.63701 -25.5056
ltibia 26.0557
lfoot -19.7001 11.1165
ltoes 10.6879
2791
root -1.23662 15.6501 -5.56476 -347.052 5.26569 -360.637
lowerback -7.53733 0.348842 2.57434
upperback -6.64787 0.34984 -0.0116542
thorax -2.64319 0.0836823 -1.43717
lowerneck -10.1276 7.45324 14.1266
upperneck 41.0789 11.1921 -7.68917
head 18.5651 5.91149 -4.01596
rclavicle -1.65861e-014 5.96354e-015
rhumerus -37.923 -10.6237 -72.9823
rradius 24.9473
rwrist 12.2527
rhand -12.532 -7.53366
rfingers 7.12502
rthumb 13.5443 -37.0731
lclavicle -1.65861e-014 5.96354e-015
lhumerus -44.9352 4.58814 77.9481
lradius 36.3047
lwrist -18.5358
lhand -3.98991 11.504
lfingers 7.12502
lthumb 21.7636 40.3004
rfemur -17.5999 -0.0372406 22.3339
rtibia 29.6907
rfoot -26.2581 -19.6104
rtoes -6.01731
lfemur -20.0394 -8.64994 -25.6819
ltibia 25.9865
lfoot -19.7329 10.5296
ltoes 10.8646
2792
root -1.20831 15.6424 -5.54057 -347.166 5.72795 -360.556
lowerback -7.49218 0.367001 2.47375
upperback -6.6264 0.380658 -0.0465056
thorax -2.64411 0.102842 -1.4154
lowerneck -10.077 7.41082 14.1316
upperneck 41.1481 11.1303 -7.63989
head 18.578 5.90074 -4.00867
rclavicle 7.20594e-015 1.67973e-014
rhumerus -38.0317 -10.9142 -72.659
rradius 24.806
rwrist 12.54
rhand -12.4262 -7.63714
rfingers 7.12502
rthumb 13.6463 -37.1698
lclavicle 7.20594e-015 1.67973e-014
lhumerus -44.8832 4.29072 78.3266
lradius 36.6189
lwrist -18.3716
lhand -3.9963 11.4241
lfingers 7.12502
lthumb 21.7575 40.2212
rfemur -17.6786 -0.676624 22.203
rtibia 30.4318
rfoot -26.482 -19.4342
rtoes -6.4969
lfemur -19.7534 -8.64783 -25.8728
ltibia 25.8765
lfoot -19.7307 9.93901
ltoes 11.0297
2793
root -1.17958 15.6355 -5.51604 -347.281 6.20352 -360.462
lowerback -7.43991 0.378797 2.35992
upperback -6.6055 0.403812 -0.0782199
thorax -2.65 0.118645 -1.3834
lowerneck -10.0254 7.36654 14.1257
upperneck 41.2147 11.0694 -7.5923
head 18.5882 5.88849 -3.99999
rclavicle 1.70209e-015 -8.15017e-015
rhumerus -38.1429 -11.2161 -72.3208
rradius 24.6631
rwrist 12.8523
rhand -12.3078 -7.76279
rfingers 7.12502
rthumb 13.7604 -37.2878
lclavicle 1.70209e-015 -8.15017e-015
lhumerus -44.8416 4.00374 78.7012
lradius 36.936
lwrist -18.2094
lhand -4.00309 11.36
lfingers 7.12502
lthumb 21.751 40.1579
rfemur -17.8098 -1.31361 22.0522
rtibia 31.2792
rfoot -26.6415 -19.2754
rtoes -7.15332
lfemur -19.4386 -8.65419 -26.0765
ltibia 25.7206
lfoot -19.6964 9.36165
ltoes 11.1918
2794
root -1.15065 15.6297 -5.49175 -347.382 6.69022 -360.362
lowerback -7.3877 0.388777 2.23813
upperback -6.58755 0.424852 -0.110723
thorax -2.65915 0.133603 -1.34789
lowerneck -9.98257 7.31826 14.1134
upperneck 41.2766 11.0018 -7.54415
head 18.596 5.87228 -3.99083
rclavicle -5.42309e-015 6.85807e-015
rhumerus -38.2523 -11.5305 -71.9763
rradius 24.5182
rwrist 13.1729
rhand -12.1773 -7.90749
rfingers 7.12502
rthumb 13.8861 -37.4239
lclavicle -5.42309e-015 6.85807e-015
lhumerus -44.8038 3.71324 79.0707
lradius 37.2596
lwrist -18.0394
lhand -4.00321 11.3029
lfingers 7.12502
lthumb 21.7509 40.1008
rfemur -18.016 -1.92811 21.885
rtibia 32.2383
rfoot -26.7083 -19.1429
rtoes -7.98385
lfemur -19.1139 -8.65698 -26.2867
ltibia 25.5159
lfoot -19.6349 8.78299
ltoes 11.3441
2795
root -1.12151 15.6252 -5.46763 -347.463 7.18987 -360.254
lowerback -7.3445 0.396523 2.10898
upperback -6.57308 0.442977 -0.144084
thorax -2.6672 0.147348 -1.30927
lowerneck -9.94994 7.26534 14.0953
upperneck 41.333 10.9265 -7.4967
head 18.6011 5.85158 -3.98202
rclavicle 9.79636e-015 1.51076e-014
rhumerus -38.3645 -11.8541 -71.6282
rradius 24.3793
rwrist 13.4928
rhand -12.0614 -8.03616
rfingers 7.12502
rthumb 13.9978 -37.5449
lclavicle 9.79636e-015 1.51076e-014
lhumerus -44.767 3.41897 79.4349
lradius 37.585
lwrist -17.8614
lhand -4.00203 11.2514
lfingers 7.12502
lthumb 21.752 40.0492
rfemur -18.3061 -2.51693 21.7033
rtibia 33.3114
rfoot -26.6546 -19.0391
rtoes -8.98656
lfemur -18.7829 -8.66812 -26.5005
ltibia 25.2604
lfoot -19.5566 8.21148
ltoes 11.4968
2796
root -1.09233 15.6223 -5.44394 -347.516 7.69904 -360.141
lowerback -7.31449 0.401205 1.97326
upperback -6.5639 0.457026 -0.176442
thorax -2.67377 0.159305 -1.26608
lowerneck -9.92513 7.21053 14.0743
upperneck 41.3814 10.8486 -7.45337
head 18.6031 5.82843 -3.97466
rclavicle 1.17904e-014 -9.14409e-015
rhumerus -38.4768 -12.1805 -71.2804
rradius 24.2507
rwrist 13.8009
rhand -11.9561 -8.13515
rfingers 7.12502
rthumb 14.0993 -37.6368
lclavicle 1.17904e-014 -9.14409e-015
lhumerus -44.7338 3.13108 79.7881
lradius 37.9127
lwrist -17.6803
lhand -4.00161 11.2112
lfingers 7.12502
lthumb 21.7524 40.0089
rfemur -18.6894 -3.06198 21.5111
rtibia 34.5001
rfoot -26.475 -18.9596
rtoes -10.0682
lfemur -18.4549 -8.68336 -26.7126
ltibia 24.9538
lfoot -19.467 7.64137
ltoes 11.6455
